<svg width="53" height="23" viewBox="0 0 53 23" fill="none" xmlns="http://www.w3.org/2000/svg">
<path d="M8.1143 17.17C8.1143 17.57 8.01096 17.9067 7.8043 18.18C7.59763 18.4467 7.31763 18.65 6.9643 18.79C6.61763 18.93 6.23763 19 5.8243 19H2.3943V11.9H6.1943C6.52763 11.9 6.8143 11.99 7.0543 12.17C7.2943 12.3433 7.48096 12.57 7.6143 12.85C7.74763 13.13 7.8143 13.4167 7.8143 13.71C7.8143 14.0567 7.72763 14.3833 7.5543 14.69C7.38096 14.99 7.12763 15.2133 6.7943 15.36C7.20096 15.48 7.52096 15.6967 7.7543 16.01C7.9943 16.3233 8.1143 16.71 8.1143 17.17ZM3.7743 13.08V14.87H5.6143C5.84096 14.87 6.03763 14.79 6.2043 14.63C6.37096 14.47 6.4543 14.25 6.4543 13.97C6.4543 13.7033 6.37763 13.49 6.2243 13.33C6.07763 13.1633 5.8943 13.08 5.6743 13.08H3.7743ZM6.7243 16.91C6.7243 16.65 6.6443 16.4267 6.4843 16.24C6.3243 16.0533 6.12763 15.96 5.8943 15.96H3.7743V17.83H5.8243C6.07763 17.83 6.29096 17.74 6.4643 17.56C6.63763 17.38 6.7243 17.1633 6.7243 16.91ZM10.1912 19V11.9H11.5712V17.79H15.1912V19H10.1912ZM19.9048 19.05C19.3848 19.05 18.9114 18.95 18.4848 18.75C18.0648 18.55 17.7014 18.28 17.3948 17.94C17.0948 17.5933 16.8614 17.2067 16.6948 16.78C16.5281 16.3467 16.4448 15.9033 16.4448 15.45C16.4448 14.9767 16.5314 14.5267 16.7048 14.1C16.8781 13.6667 17.1214 13.2833 17.4348 12.95C17.7481 12.61 18.1148 12.3433 18.5348 12.15C18.9614 11.95 19.4281 11.85 19.9348 11.85C20.4481 11.85 20.9148 11.9533 21.3348 12.16C21.7614 12.3667 22.1248 12.6433 22.4248 12.99C22.7314 13.3367 22.9648 13.7267 23.1248 14.16C23.2914 14.5867 23.3748 15.0233 23.3748 15.47C23.3748 15.9367 23.2881 16.3867 23.1148 16.82C22.9414 17.2467 22.6981 17.63 22.3848 17.97C22.0781 18.3033 21.7114 18.5667 21.2848 18.76C20.8648 18.9533 20.4048 19.05 19.9048 19.05ZM17.8448 15.45C17.8448 15.8633 17.9248 16.25 18.0848 16.61C18.2514 16.97 18.4881 17.2633 18.7948 17.49C19.1081 17.7167 19.4814 17.83 19.9148 17.83C20.3614 17.83 20.7381 17.7133 21.0448 17.48C21.3514 17.2467 21.5848 16.9467 21.7448 16.58C21.9048 16.2133 21.9848 15.8367 21.9848 15.45C21.9848 15.0367 21.9014 14.65 21.7348 14.29C21.5681 13.93 21.3281 13.64 21.0148 13.42C20.7081 13.1933 20.3414 13.08 19.9148 13.08C19.4681 13.08 19.0914 13.1967 18.7848 13.43C18.4781 13.6633 18.2448 13.9633 18.0848 14.33C17.9248 14.69 17.8448 15.0633 17.8448 15.45ZM28.3834 19.05C27.9167 19.05 27.48 18.9567 27.0734 18.77C26.6667 18.5833 26.3067 18.3267 25.9934 18C25.6867 17.6667 25.4467 17.28 25.2734 16.84C25.1 16.4 25.0134 15.9233 25.0134 15.41C25.0134 14.9233 25.1 14.4667 25.2734 14.04C25.4467 13.6067 25.69 13.2267 26.0034 12.9C26.3167 12.5733 26.6834 12.3167 27.1034 12.13C27.5234 11.9433 27.98 11.85 28.4734 11.85C29.1334 11.85 29.7034 11.9933 30.1834 12.28C30.6634 12.56 31.0234 12.9333 31.2634 13.4L30.2334 14.16C30.0534 13.8133 29.8 13.5467 29.4734 13.36C29.1534 13.1667 28.8034 13.07 28.4234 13.07C28.0234 13.07 27.67 13.18 27.3634 13.4C27.0634 13.62 26.8267 13.91 26.6534 14.27C26.4867 14.63 26.4034 15.0233 26.4034 15.45C26.4034 15.8967 26.4934 16.3 26.6734 16.66C26.8534 17.02 27.1 17.3067 27.4134 17.52C27.7334 17.7267 28.0967 17.83 28.5034 17.83C29.19 17.83 29.81 17.5067 30.3634 16.86V16.36H28.9334V15.35H31.5034V19H30.3634V18.2C29.79 18.7667 29.13 19.05 28.3834 19.05ZM33.6795 19V11.9H35.0595V19H33.6795ZM37.1108 15.4C37.1108 14.9667 37.1874 14.54 37.3408 14.12C37.5008 13.7 37.7308 13.32 38.0308 12.98C38.3308 12.64 38.6974 12.37 39.1308 12.17C39.5641 11.9633 40.0574 11.86 40.6108 11.86C41.2574 11.86 41.8208 12.0033 42.3008 12.29C42.7808 12.5767 43.1374 12.95 43.3708 13.41L42.3108 14.14C42.1908 13.8733 42.0341 13.6633 41.8408 13.51C41.6474 13.3567 41.4374 13.2467 41.2108 13.18C40.9908 13.1133 40.7774 13.08 40.5708 13.08C40.2241 13.08 39.9208 13.15 39.6608 13.29C39.4074 13.43 39.1941 13.6133 39.0208 13.84C38.8474 14.0667 38.7174 14.32 38.6308 14.6C38.5508 14.88 38.5108 15.16 38.5108 15.44C38.5108 15.86 38.5974 16.2533 38.7708 16.62C38.9441 16.98 39.1874 17.2733 39.5008 17.5C39.8141 17.7267 40.1774 17.84 40.5908 17.84C40.8041 17.84 41.0241 17.8033 41.2508 17.73C41.4841 17.6567 41.6974 17.54 41.8908 17.38C42.0841 17.22 42.2341 17.0133 42.3408 16.76L43.4708 17.41C43.3241 17.7633 43.0941 18.0633 42.7808 18.31C42.4674 18.55 42.1141 18.7367 41.7208 18.87C41.3274 18.9967 40.9374 19.06 40.5508 19.06C40.0441 19.06 39.5808 18.9567 39.1608 18.75C38.7474 18.5367 38.3874 18.2567 38.0808 17.91C37.7741 17.5567 37.5341 17.1633 37.3608 16.73C37.1941 16.29 37.1108 15.8467 37.1108 15.4ZM45.3963 19V11.91H46.7763V15.28L49.7563 11.9H51.2763L48.5563 15.05L51.4463 19H49.8863L47.6763 15.94L46.7763 16.88V19H45.3963Z" fill="black"/>
<path d="M5 8L26.2844 1.01005C26.3043 1.00351 26.3257 1.00339 26.3457 1.00969L48.5 8" stroke="black" stroke-width="1.5" stroke-linecap="round"/>
</svg>
